<?xml version="1.0" encoding="UTF-8"?>
<svg xmlns="http://www.w3.org/2000/svg" xmlns:xlink="http://www.w3.org/1999/xlink" width="48px" height="48px" viewBox="0 0 48 52" version="1.1">
<g id="surface1">
<path style=" stroke:none;fill-rule:nonzero;fill:rgb(54.901961%,78.431373%,29.411765%);fill-opacity:1;" d="M 21.839844 0.660156 C 23.144531 -0.0742188 24.84375 -0.078125 26.148438 0.660156 C 32.707031 4.304688 39.269531 7.945312 45.828125 11.59375 C 47.0625 12.277344 47.890625 13.628906 47.875 15.027344 L 47.875 36.964844 C 47.886719 38.421875 46.980469 39.804688 45.675781 40.472656 C 39.136719 44.097656 32.601562 47.730469 26.066406 51.355469 C 24.734375 52.105469 23 52.046875 21.710938 51.234375 C 19.75 50.117188 17.785156 49.007812 15.824219 47.890625 C 15.425781 47.65625 14.972656 47.46875 14.691406 47.085938 C 14.941406 46.753906 15.386719 46.710938 15.75 46.566406 C 16.570312 46.3125 17.320312 45.902344 18.070312 45.503906 C 18.261719 45.375 18.496094 45.421875 18.675781 45.539062 C 20.351562 46.484375 22.015625 47.457031 23.695312 48.390625 C 24.054688 48.597656 24.417969 48.324219 24.726562 48.15625 C 31.140625 44.589844 37.566406 41.035156 43.980469 37.46875 C 44.21875 37.355469 44.351562 37.109375 44.332031 36.851562 C 44.335938 29.613281 44.332031 22.378906 44.332031 15.140625 C 44.359375 14.851562 44.1875 14.582031 43.921875 14.464844 C 37.40625 10.855469 30.894531 7.238281 24.378906 3.628906 C 24.148438 3.472656 23.84375 3.472656 23.609375 3.628906 C 17.097656 7.238281 10.585938 10.855469 4.070312 14.464844 C 3.804688 14.585938 3.625 14.847656 3.65625 15.140625 C 3.65625 22.378906 3.65625 29.613281 3.65625 36.851562 C 3.632812 37.109375 3.773438 37.351562 4.011719 37.460938 C 5.75 38.429688 7.492188 39.394531 9.230469 40.359375 C 10.210938 40.878906 11.414062 41.1875 12.492188 40.789062 C 13.445312 40.453125 14.113281 39.496094 14.097656 38.503906 C 14.105469 31.308594 14.089844 24.113281 14.101562 16.917969 C 14.078125 16.601562 14.386719 16.335938 14.703125 16.367188 C 15.539062 16.359375 16.375 16.355469 17.210938 16.367188 C 17.558594 16.359375 17.796875 16.703125 17.753906 17.027344 C 17.75 24.265625 17.765625 31.507812 17.75 38.746094 C 17.75 40.675781 16.945312 42.777344 15.132812 43.71875 C 12.894531 44.859375 10.132812 44.617188 7.925781 43.523438 C 6.011719 42.585938 4.1875 41.480469 2.3125 40.472656 C 1.007812 39.808594 0.105469 38.421875 0.113281 36.964844 L 0.113281 15.027344 C 0.0976562 13.601562 0.957031 12.226562 2.230469 11.550781 C 8.765625 7.921875 15.304688 4.289062 21.839844 0.660156 Z M 21.839844 0.660156 "/>
<path style=" stroke:none;fill-rule:nonzero;fill:rgb(54.901961%,78.431373%,29.411765%);fill-opacity:1;" d="M 27.542969 15.855469 C 30.394531 15.675781 33.445312 15.75 36.011719 17.132812 C 38 18.191406 39.101562 20.410156 39.136719 22.582031 C 39.078125 22.875 38.769531 23.039062 38.484375 23.015625 C 37.65625 23.015625 36.828125 23.027344 36.003906 23.011719 C 35.652344 23.023438 35.449219 22.707031 35.402344 22.402344 C 35.164062 21.363281 34.589844 20.335938 33.597656 19.832031 C 32.070312 19.082031 30.300781 19.121094 28.636719 19.136719 C 27.421875 19.199219 26.117188 19.300781 25.089844 20.003906 C 24.296875 20.535156 24.058594 21.609375 24.339844 22.476562 C 24.605469 23.097656 25.335938 23.296875 25.929688 23.484375 C 29.367188 24.367188 33.007812 24.277344 36.378906 25.441406 C 37.773438 25.917969 39.140625 26.839844 39.617188 28.277344 C 40.242188 30.203125 39.96875 32.503906 38.574219 34.050781 C 37.445312 35.324219 35.800781 36.015625 34.160156 36.390625 C 31.976562 36.871094 29.710938 36.882812 27.492188 36.671875 C 25.40625 36.4375 23.238281 35.898438 21.628906 34.5 C 20.25 33.324219 19.578125 31.492188 19.644531 29.726562 C 19.664062 29.425781 19.964844 29.21875 20.253906 29.242188 C 21.089844 29.238281 21.921875 29.234375 22.753906 29.242188 C 23.085938 29.21875 23.332031 29.503906 23.351562 29.8125 C 23.503906 30.800781 23.882812 31.839844 24.761719 32.425781 C 26.453125 33.5 28.578125 33.429688 30.515625 33.457031 C 32.121094 33.386719 33.925781 33.367188 35.234375 32.324219 C 35.925781 31.726562 36.132812 30.730469 35.945312 29.875 C 35.742188 29.148438 34.972656 28.8125 34.3125 28.589844 C 30.921875 27.535156 27.238281 27.917969 23.878906 26.726562 C 22.515625 26.25 21.195312 25.355469 20.671875 23.976562 C 19.941406 22.027344 20.277344 19.613281 21.816406 18.121094 C 23.316406 16.632812 25.484375 16.0625 27.542969 15.855469 Z M 27.542969 15.855469 "/>
</g>
</svg>
